PathFileType  4	(X/Y/Z) C:\Users\antoi\Documents\MyRepositories\mobilecap\ResultsAnalysis
DataRate	CameraRate	NumFrames	NumMarkers	Units	OrigDataRate	OrigDataStartFrame	OrigNumFrames
100.0	100.0	4	51	mm	100.0	335	1336
Frame#	Time	r_knee			r_shank_antsup			r_ankle			r_calc			r_5meta			r_toe			L_knee			L_shank_antsup			L_ankle			L_calc			L_5meta			L_toe			r_sh2			r_sh3			r_sh4			L_sh2			L_sh3			r_thigh1			r_thigh2			r_thigh3			r_thigh4			r_thigh5			L_thigh1			L_thigh2			L_thigh3			L_thigh4			r.ASIS			r.PSIS			L.ASIS			L.PSIS			C7			R_Shoulder			L_Shoulder			R_Sternum			L_Sternum			R_humerus			R_elbow_med			R_elbow_lat			R_forearm			R_wrist_radius			R_wrist_ulna			L_humerus			L_elbow_med			L_elbow_lat			L_forearm			L_wrist_radius			L_wrist_ulna			R_HJC			L_HJC			R_HJC_reg			L_HJC_reg			
		X1	Y1	Z1	X2	Y2	Z2	X3	Y3	Z3	X4	Y4	Z4	X5	Y5	Z5	X6	Y6	Z6	X7	Y7	Z7	X8	Y8	Z8	X9	Y9	Z9	X10	Y10	Z10	X11	Y11	Z11	X12	Y12	Z12	X13	Y13	Z13	X14	Y14	Z14	X15	Y15	Z15	X16	Y16	Z16	X17	Y17	Z17	X18	Y18	Z18	X19	Y19	Z19	X20	Y20	Z20	X21	Y21	Z21	X22	Y22	Z22	X23	Y23	Z23	X24	Y24	Z24	X25	Y25	Z25	X26	Y26	Z26	X27	Y27	Z27	X28	Y28	Z28	X29	Y29	Z29	X30	Y30	Z30	X31	Y31	Z31	X32	Y32	Z32	X33	Y33	Z33	X34	Y34	Z34	X35	Y35	Z35	X36	Y36	Z36	X37	Y37	Z37	X38	Y38	Z38	X39	Y39	Z39	X40	Y40	Z40	X41	Y41	Z41	X42	Y42	Z42	X43	Y43	Z43	X44	Y44	Z44	X45	Y45	Z45	X46	Y46	Z46	X47	Y47	Z47	X48	Y48	Z48	X49	Y49	Z49	X50	Y50	Z50	X51	Y51	Z51	

335	3.34000000	-164.86281	484.05658	-443.84405	-148.38177	411.46325	-420.63994	-329.18464	103.59642	-442.15330	-391.36853	52.29812	-487.66672	-200.69691	40.24596	-383.41113	-159.30219	63.08665	-439.75720	-157.18479	475.96166	-769.25245	-153.70123	371.86289	-784.27957	-341.48451	99.60854	-764.27434	-414.08660	49.09660	-728.56652	-199.60826	33.97851	-814.69682	-171.21400	58.97786	-752.61724	-192.63683	307.21006	-416.42118	-217.09005	441.34038	-413.49915	-269.42523	336.61674	-412.06274	-231.47946	415.98021	-793.88261	-281.04800	305.66437	-794.43191	-400.90074	680.14173	-419.06056	-299.35399	645.46923	-427.26855	-293.42195	580.29970	-402.24490	-437.54829	572.48123	-425.62931	-324.54101	537.48684	-419.53759	-390.61327	681.46288	-783.76081	-261.26616	624.66122	-784.77614	-436.20752	567.78730	-790.92237	-305.33847	523.94569	-794.84257	-440.30813	742.82937	-477.56197	-617.10408	807.57968	-564.19049	-430.75280	739.23791	-739.58673	-615.27632	803.53817	-667.95788	-344.24836	1250.07905	-615.44853	-272.48818	1198.75986	-444.15573	-254.41126	1196.55051	-768.61570	-227.90399	1127.21306	-575.23119	-225.93478	1124.87397	-627.86243	-377.40667	992.03718	-292.47805	-473.85929	916.79947	-321.62533	-424.78682	925.27440	-247.90867	-357.20279	776.63484	-277.06654	-318.50751	672.46035	-316.32030	-348.41733	669.82986	-283.78199	-377.19895	989.34343	-892.40076	-485.59863	937.41229	-861.14242	-439.03017	927.91861	-921.39902	-393.66527	756.93405	-897.87096	-357.86098	672.05375	-868.81399	-394.72814	660.36933	-877.77161	-531.97515	676.08478	-488.21041	-521.73879	672.22550	-718.31865	-521.41396	680.97282	-513.82862	-518.36857	674.23816	-686.73770	
336	3.35000000	-164.91442	485.62330	-443.34648	-148.67324	412.00335	-421.04386	-329.04717	103.51475	-442.40386	-391.41012	52.23285	-487.28463	-200.70542	40.26704	-383.41961	-159.28045	63.02476	-439.82160	-157.52594	476.77429	-768.36680	-154.01111	372.27328	-783.90256	-341.44431	99.63903	-764.24828	-414.09255	49.09310	-728.62961	-199.63342	34.11909	-814.82759	-171.21079	58.96315	-752.59214	-192.82200	307.52614	-416.65794	-217.25435	441.62651	-413.92994	-269.54192	336.96928	-412.24799	-231.81192	416.37288	-793.74370	-281.38809	305.97633	-794.01213	-397.25628	686.25906	-419.08927	-296.28290	649.34285	-427.37491	-291.90756	583.94514	-402.11377	-436.37444	579.66478	-425.37938	-323.78207	541.56594	-419.72483	-386.64163	687.58876	-786.36279	-258.66535	627.81193	-784.60724	-435.89856	576.01389	-793.16940	-304.85629	528.16412	-794.46732	-436.96056	751.68395	-477.55773	-613.22816	817.73260	-564.21016	-427.45855	748.59701	-739.02639	-611.25144	813.75686	-667.97209	-342.76806	1261.15428	-615.08847	-271.46736	1210.06820	-443.55365	-252.78758	1207.97953	-768.30383	-225.99210	1138.96689	-574.77756	-223.91425	1136.59851	-627.41462	-376.66311	1001.94910	-293.66057	-472.34526	926.18422	-324.55640	-424.18597	934.52711	-250.14300	-356.75530	785.46690	-277.97067	-318.06389	680.84822	-316.22064	-348.62451	678.59265	-283.76841	-374.36025	999.06965	-890.80157	-482.04783	946.17002	-858.40343	-435.89582	936.88282	-918.92325	-390.86806	765.66146	-896.86502	-354.55789	680.02990	-868.81152	-392.29518	668.92903	-877.24988	-529.09805	685.57436	-488.24008	-518.62294	682.01454	-718.34215	-518.55152	690.72659	-513.92785	-515.26423	684.11530	-686.46502	
337	3.36000000	-165.07790	487.43232	-442.40150	-149.08860	412.37681	-421.61439	-329.09386	103.59522	-442.48830	-391.45775	52.21065	-487.31081	-200.69356	40.34136	-383.41766	-159.27983	62.95510	-439.92915	-158.11334	477.58815	-767.42205	-154.68068	372.38701	-782.52970	-341.45859	99.66298	-764.20686	-414.11443	49.11395	-728.61129	-199.66122	34.24661	-814.84175	-171.22615	58.93065	-752.53024	-193.09698	307.94914	-416.96745	-217.58543	441.94949	-414.45953	-269.85865	337.18026	-412.55012	-232.32926	416.79237	-793.57823	-281.85418	306.15549	-793.47946	-393.40615	692.39324	-419.33808	-293.37323	653.29611	-427.57207	-290.54446	587.66081	-402.19845	-435.16112	587.03467	-425.21055	-323.47431	546.18517	-420.30297	-382.56355	694.04877	-788.55468	-256.12721	631.09986	-784.47018	-435.08483	583.91402	-794.17523	-304.82253	532.27068	-793.35067	-433.62989	760.54216	-477.54309	-609.33956	827.86303	-564.44673	-423.94681	757.99062	-738.73420	-607.27970	823.99410	-668.00646	-341.52259	1272.39190	-614.80169	-270.61665	1221.59473	-442.87562	-251.45671	1219.64579	-767.92194	-224.24065	1150.94591	-574.38539	-222.01818	1148.48518	-626.90402	-375.95035	1011.96556	-294.77908	-470.84083	935.74068	-327.57583	-423.70115	943.97499	-252.59025	-356.42532	794.46190	-278.93121	-317.58792	689.77874	-316.04376	-348.79245	687.67567	-283.66125	-371.44258	1008.76009	-889.12229	-478.22193	955.07215	-855.73019	-432.74167	945.95331	-916.57846	-388.15892	774.51718	-895.78684	-351.55449	688.51620	-868.60191	-389.92685	677.67694	-876.70782	-526.19437	695.04309	-488.42282	-515.39274	691.84600	-718.51527	-515.57852	700.39961	-514.02570	-512.14946	693.95980	-686.38390	
338	3.37000000	-165.62362	488.63808	-442.26754	-149.69862	412.75270	-422.12605	-329.19756	103.62867	-442.54760	-391.52016	52.19531	-487.37792	-200.68597	40.39630	-383.44304	-159.29096	62.84177	-440.00382	-158.85956	478.51277	-766.66633	-155.58980	372.37276	-780.73644	-341.51330	99.71079	-764.18139	-414.14098	49.18562	-728.57304	-199.67817	34.31225	-814.77917	-171.24358	58.90007	-752.44131	-193.52096	308.46644	-417.19388	-218.24618	442.32623	-414.95140	-270.32540	337.49612	-412.62311	-233.06469	417.08792	-793.10509	-282.27190	306.09688	-792.99528	-389.58236	698.60540	-419.62212	-290.51656	657.07238	-427.53018	-289.07186	591.64297	-402.24368	-433.84394	594.28197	-425.74435	-323.33098	550.89343	-421.03889	-378.49074	700.51848	-788.38120	-253.60946	634.54169	-783.94473	-433.40438	591.19941	-793.38003	-304.85233	536.54249	-792.27758	-430.04510	768.98345	-477.92632	-605.38559	838.02173	-564.53209	-420.15362	767.09514	-738.32824	-603.33182	834.31123	-668.09237	-340.51994	1283.78830	-614.58028	-269.88456	1233.27660	-442.27926	-250.45446	1231.32205	-767.48596	-222.63091	1163.08042	-573.88235	-220.29633	1160.57940	-626.40786	-375.35843	1021.89252	-296.22160	-469.14285	945.27501	-330.88731	-423.41190	953.36458	-255.43256	-356.19396	803.62278	-279.70970	-317.10093	698.90697	-315.66435	-348.85140	696.78516	-283.72485	-368.55847	1018.44341	-887.31467	-474.44896	964.21726	-853.43388	-429.59008	955.13372	-914.41933	-385.56396	783.63630	-894.48674	-348.94786	697.45823	-868.18904	-387.54851	686.62177	-876.01975	-523.24728	704.29705	-488.71681	-512.20781	701.60207	-718.80421	-512.36703	709.97772	-514.40116	-508.95834	703.81903	-686.25075	
